<mxfile host="app.diagrams.net" modified="2022-12-07T22:05:15.994Z" agent="5.0 (Macintosh; Intel Mac OS X 10_15_7) AppleWebKit/537.36 (KHTML, like Gecko) Chrome/108.0.0.0 Safari/537.36" etag="nEVp2-pxXtE5ZtCIQLZf" version="20.5.3" type="github">
  <diagram id="N-N0QsJYDf5ocSqOgAwA" name="Page-1">
    <mxGraphModel dx="1666" dy="769" grid="1" gridSize="10" guides="1" tooltips="1" connect="1" arrows="1" fold="1" page="1" pageScale="1" pageWidth="850" pageHeight="1100" math="0" shadow="0">
      <root>
        <mxCell id="0" />
        <mxCell id="1" parent="0" />
        <mxCell id="hr_I5utK1YI0NH82CtJ3-16" style="edgeStyle=orthogonalEdgeStyle;rounded=0;orthogonalLoop=1;jettySize=auto;html=1;exitX=1;exitY=0.5;exitDx=0;exitDy=0;entryX=0;entryY=0.5;entryDx=0;entryDy=0;" edge="1" parent="1" source="hr_I5utK1YI0NH82CtJ3-1" target="hr_I5utK1YI0NH82CtJ3-2">
          <mxGeometry relative="1" as="geometry" />
        </mxCell>
        <mxCell id="hr_I5utK1YI0NH82CtJ3-1" value="index.html" style="rounded=0;whiteSpace=wrap;html=1;" vertex="1" parent="1">
          <mxGeometry x="220" y="20" width="120" height="60" as="geometry" />
        </mxCell>
        <mxCell id="hr_I5utK1YI0NH82CtJ3-17" style="edgeStyle=orthogonalEdgeStyle;rounded=0;orthogonalLoop=1;jettySize=auto;html=1;exitX=0.5;exitY=1;exitDx=0;exitDy=0;entryX=0.5;entryY=0;entryDx=0;entryDy=0;" edge="1" parent="1" source="hr_I5utK1YI0NH82CtJ3-2" target="hr_I5utK1YI0NH82CtJ3-3">
          <mxGeometry relative="1" as="geometry" />
        </mxCell>
        <mxCell id="hr_I5utK1YI0NH82CtJ3-31" style="edgeStyle=orthogonalEdgeStyle;rounded=0;orthogonalLoop=1;jettySize=auto;html=1;exitX=0.5;exitY=1;exitDx=0;exitDy=0;entryX=0.5;entryY=0;entryDx=0;entryDy=0;" edge="1" parent="1" source="hr_I5utK1YI0NH82CtJ3-2" target="hr_I5utK1YI0NH82CtJ3-30">
          <mxGeometry relative="1" as="geometry" />
        </mxCell>
        <mxCell id="hr_I5utK1YI0NH82CtJ3-2" value="App.js" style="rounded=1;whiteSpace=wrap;html=1;arcSize=50;" vertex="1" parent="1">
          <mxGeometry x="380" y="20" width="120" height="60" as="geometry" />
        </mxCell>
        <mxCell id="hr_I5utK1YI0NH82CtJ3-18" style="edgeStyle=orthogonalEdgeStyle;rounded=0;orthogonalLoop=1;jettySize=auto;html=1;exitX=0.5;exitY=1;exitDx=0;exitDy=0;entryX=0.5;entryY=0;entryDx=0;entryDy=0;" edge="1" parent="1" source="hr_I5utK1YI0NH82CtJ3-3" target="hr_I5utK1YI0NH82CtJ3-6">
          <mxGeometry relative="1" as="geometry" />
        </mxCell>
        <mxCell id="hr_I5utK1YI0NH82CtJ3-3" value="Login.js" style="rounded=1;whiteSpace=wrap;html=1;arcSize=50;" vertex="1" parent="1">
          <mxGeometry x="300" y="120" width="120" height="60" as="geometry" />
        </mxCell>
        <mxCell id="hr_I5utK1YI0NH82CtJ3-4" value="Logout.js" style="rounded=1;whiteSpace=wrap;html=1;arcSize=50;" vertex="1" parent="1">
          <mxGeometry x="540" y="320" width="120" height="60" as="geometry" />
        </mxCell>
        <mxCell id="hr_I5utK1YI0NH82CtJ3-39" style="edgeStyle=orthogonalEdgeStyle;rounded=0;orthogonalLoop=1;jettySize=auto;html=1;exitX=0.5;exitY=1;exitDx=0;exitDy=0;entryX=0.5;entryY=0;entryDx=0;entryDy=0;" edge="1" parent="1" source="hr_I5utK1YI0NH82CtJ3-5" target="hr_I5utK1YI0NH82CtJ3-33">
          <mxGeometry relative="1" as="geometry" />
        </mxCell>
        <mxCell id="hr_I5utK1YI0NH82CtJ3-72" style="edgeStyle=orthogonalEdgeStyle;rounded=0;orthogonalLoop=1;jettySize=auto;html=1;exitX=1;exitY=0.5;exitDx=0;exitDy=0;entryX=0;entryY=0.5;entryDx=0;entryDy=0;" edge="1" parent="1" source="hr_I5utK1YI0NH82CtJ3-5" target="hr_I5utK1YI0NH82CtJ3-7">
          <mxGeometry relative="1" as="geometry" />
        </mxCell>
        <mxCell id="hr_I5utK1YI0NH82CtJ3-5" value="Home.js&lt;span style=&quot;color: rgba(0, 0, 0, 0); font-family: monospace; font-size: 0px; text-align: start;&quot;&gt;%3CmxGraphModel%3E%3Croot%3E%3CmxCell%20id%3D%220%22%2F%3E%3CmxCell%20id%3D%221%22%20parent%3D%220%22%2F%3E%3CmxCell%20id%3D%222%22%20value%3D%22Logout.js%22%20style%3D%22rounded%3D1%3BwhiteSpace%3Dwrap%3Bhtml%3D1%3BarcSize%3D50%3B%22%20vertex%3D%221%22%20parent%3D%221%22%3E%3CmxGeometry%20x%3D%22470%22%20y%3D%22110%22%20width%3D%22120%22%20height%3D%2260%22%20as%3D%22geometry%22%2F%3E%3C%2FmxCell%3E%3C%2Froot%3E%3C%2FmxGraphModel%3E&lt;/span&gt;" style="rounded=1;whiteSpace=wrap;html=1;arcSize=50;" vertex="1" parent="1">
          <mxGeometry x="60" y="320" width="120" height="60" as="geometry" />
        </mxCell>
        <mxCell id="hr_I5utK1YI0NH82CtJ3-19" style="edgeStyle=orthogonalEdgeStyle;rounded=0;orthogonalLoop=1;jettySize=auto;html=1;exitX=0.5;exitY=1;exitDx=0;exitDy=0;entryX=0.5;entryY=0;entryDx=0;entryDy=0;" edge="1" parent="1" source="hr_I5utK1YI0NH82CtJ3-6" target="hr_I5utK1YI0NH82CtJ3-7">
          <mxGeometry relative="1" as="geometry" />
        </mxCell>
        <mxCell id="hr_I5utK1YI0NH82CtJ3-20" style="edgeStyle=orthogonalEdgeStyle;rounded=0;orthogonalLoop=1;jettySize=auto;html=1;exitX=0.5;exitY=1;exitDx=0;exitDy=0;entryX=0.5;entryY=0;entryDx=0;entryDy=0;" edge="1" parent="1" source="hr_I5utK1YI0NH82CtJ3-6" target="hr_I5utK1YI0NH82CtJ3-5">
          <mxGeometry relative="1" as="geometry" />
        </mxCell>
        <mxCell id="hr_I5utK1YI0NH82CtJ3-21" style="edgeStyle=orthogonalEdgeStyle;rounded=0;orthogonalLoop=1;jettySize=auto;html=1;exitX=0.5;exitY=1;exitDx=0;exitDy=0;entryX=0.5;entryY=0;entryDx=0;entryDy=0;" edge="1" parent="1" source="hr_I5utK1YI0NH82CtJ3-6" target="hr_I5utK1YI0NH82CtJ3-10">
          <mxGeometry relative="1" as="geometry" />
        </mxCell>
        <mxCell id="hr_I5utK1YI0NH82CtJ3-22" style="edgeStyle=orthogonalEdgeStyle;rounded=0;orthogonalLoop=1;jettySize=auto;html=1;exitX=0.5;exitY=1;exitDx=0;exitDy=0;entryX=0.5;entryY=0;entryDx=0;entryDy=0;" edge="1" parent="1" source="hr_I5utK1YI0NH82CtJ3-6" target="hr_I5utK1YI0NH82CtJ3-4">
          <mxGeometry relative="1" as="geometry" />
        </mxCell>
        <mxCell id="hr_I5utK1YI0NH82CtJ3-6" value="Nav.js" style="rounded=1;whiteSpace=wrap;html=1;arcSize=50;" vertex="1" parent="1">
          <mxGeometry x="300" y="220" width="120" height="60" as="geometry" />
        </mxCell>
        <mxCell id="hr_I5utK1YI0NH82CtJ3-23" style="edgeStyle=orthogonalEdgeStyle;rounded=0;orthogonalLoop=1;jettySize=auto;html=1;exitX=0.5;exitY=1;exitDx=0;exitDy=0;entryX=0.5;entryY=0;entryDx=0;entryDy=0;" edge="1" parent="1" source="hr_I5utK1YI0NH82CtJ3-7" target="hr_I5utK1YI0NH82CtJ3-8">
          <mxGeometry relative="1" as="geometry" />
        </mxCell>
        <mxCell id="hr_I5utK1YI0NH82CtJ3-73" style="edgeStyle=orthogonalEdgeStyle;rounded=0;orthogonalLoop=1;jettySize=auto;html=1;exitX=0.25;exitY=1;exitDx=0;exitDy=0;entryX=0.5;entryY=0;entryDx=0;entryDy=0;" edge="1" parent="1" source="hr_I5utK1YI0NH82CtJ3-7" target="hr_I5utK1YI0NH82CtJ3-33">
          <mxGeometry relative="1" as="geometry" />
        </mxCell>
        <mxCell id="hr_I5utK1YI0NH82CtJ3-7" value="Accounts.js" style="rounded=1;whiteSpace=wrap;html=1;arcSize=50;" vertex="1" parent="1">
          <mxGeometry x="220" y="320" width="120" height="60" as="geometry" />
        </mxCell>
        <mxCell id="hr_I5utK1YI0NH82CtJ3-26" style="edgeStyle=orthogonalEdgeStyle;rounded=0;orthogonalLoop=1;jettySize=auto;html=1;exitX=0.5;exitY=1;exitDx=0;exitDy=0;entryX=0.5;entryY=0;entryDx=0;entryDy=0;" edge="1" parent="1" source="hr_I5utK1YI0NH82CtJ3-8" target="hr_I5utK1YI0NH82CtJ3-9">
          <mxGeometry relative="1" as="geometry" />
        </mxCell>
        <mxCell id="hr_I5utK1YI0NH82CtJ3-70" style="edgeStyle=orthogonalEdgeStyle;rounded=0;orthogonalLoop=1;jettySize=auto;html=1;exitX=1;exitY=0.5;exitDx=0;exitDy=0;entryX=0.5;entryY=0;entryDx=0;entryDy=0;" edge="1" parent="1" source="hr_I5utK1YI0NH82CtJ3-8" target="hr_I5utK1YI0NH82CtJ3-37">
          <mxGeometry relative="1" as="geometry" />
        </mxCell>
        <mxCell id="hr_I5utK1YI0NH82CtJ3-8" value="Account.js" style="rounded=1;whiteSpace=wrap;html=1;arcSize=50;" vertex="1" parent="1">
          <mxGeometry x="220" y="420" width="120" height="60" as="geometry" />
        </mxCell>
        <mxCell id="hr_I5utK1YI0NH82CtJ3-9" value="Account Info" style="rounded=1;whiteSpace=wrap;html=1;arcSize=50;" vertex="1" parent="1">
          <mxGeometry x="220" y="520" width="120" height="60" as="geometry" />
        </mxCell>
        <mxCell id="hr_I5utK1YI0NH82CtJ3-24" style="edgeStyle=orthogonalEdgeStyle;rounded=0;orthogonalLoop=1;jettySize=auto;html=1;exitX=0.5;exitY=1;exitDx=0;exitDy=0;entryX=0.5;entryY=0;entryDx=0;entryDy=0;" edge="1" parent="1" source="hr_I5utK1YI0NH82CtJ3-10" target="hr_I5utK1YI0NH82CtJ3-11">
          <mxGeometry relative="1" as="geometry" />
        </mxCell>
        <mxCell id="hr_I5utK1YI0NH82CtJ3-71" style="edgeStyle=orthogonalEdgeStyle;rounded=0;orthogonalLoop=1;jettySize=auto;html=1;exitX=0;exitY=0.5;exitDx=0;exitDy=0;" edge="1" parent="1" source="hr_I5utK1YI0NH82CtJ3-10">
          <mxGeometry relative="1" as="geometry">
            <mxPoint x="360" y="620" as="targetPoint" />
          </mxGeometry>
        </mxCell>
        <mxCell id="hr_I5utK1YI0NH82CtJ3-10" value="Transactions.js" style="rounded=1;whiteSpace=wrap;html=1;arcSize=50;" vertex="1" parent="1">
          <mxGeometry x="380" y="320" width="120" height="60" as="geometry" />
        </mxCell>
        <mxCell id="hr_I5utK1YI0NH82CtJ3-25" style="edgeStyle=orthogonalEdgeStyle;rounded=0;orthogonalLoop=1;jettySize=auto;html=1;exitX=0.5;exitY=1;exitDx=0;exitDy=0;entryX=0.5;entryY=0;entryDx=0;entryDy=0;" edge="1" parent="1" source="hr_I5utK1YI0NH82CtJ3-11" target="hr_I5utK1YI0NH82CtJ3-12">
          <mxGeometry relative="1" as="geometry" />
        </mxCell>
        <mxCell id="hr_I5utK1YI0NH82CtJ3-63" style="edgeStyle=orthogonalEdgeStyle;rounded=0;orthogonalLoop=1;jettySize=auto;html=1;exitX=0.5;exitY=1;exitDx=0;exitDy=0;entryX=0.5;entryY=0;entryDx=0;entryDy=0;" edge="1" parent="1" source="hr_I5utK1YI0NH82CtJ3-11" target="hr_I5utK1YI0NH82CtJ3-61">
          <mxGeometry relative="1" as="geometry" />
        </mxCell>
        <mxCell id="hr_I5utK1YI0NH82CtJ3-66" style="edgeStyle=orthogonalEdgeStyle;rounded=0;orthogonalLoop=1;jettySize=auto;html=1;exitX=0.5;exitY=1;exitDx=0;exitDy=0;entryX=0.5;entryY=0;entryDx=0;entryDy=0;" edge="1" parent="1" source="hr_I5utK1YI0NH82CtJ3-11" target="hr_I5utK1YI0NH82CtJ3-65">
          <mxGeometry relative="1" as="geometry" />
        </mxCell>
        <mxCell id="hr_I5utK1YI0NH82CtJ3-11" value="Transaction.js" style="rounded=1;whiteSpace=wrap;html=1;arcSize=50;" vertex="1" parent="1">
          <mxGeometry x="380" y="420" width="120" height="60" as="geometry" />
        </mxCell>
        <mxCell id="hr_I5utK1YI0NH82CtJ3-12" value="Trasnaction Info" style="rounded=1;whiteSpace=wrap;html=1;arcSize=50;" vertex="1" parent="1">
          <mxGeometry x="380" y="520" width="120" height="60" as="geometry" />
        </mxCell>
        <mxCell id="hr_I5utK1YI0NH82CtJ3-29" style="edgeStyle=orthogonalEdgeStyle;rounded=0;orthogonalLoop=1;jettySize=auto;html=1;exitX=0.5;exitY=1;exitDx=0;exitDy=0;entryX=0.5;entryY=0;entryDx=0;entryDy=0;" edge="1" parent="1" target="hr_I5utK1YI0NH82CtJ3-14">
          <mxGeometry relative="1" as="geometry">
            <mxPoint x="-40" y="580" as="sourcePoint" />
          </mxGeometry>
        </mxCell>
        <mxCell id="hr_I5utK1YI0NH82CtJ3-28" style="edgeStyle=orthogonalEdgeStyle;rounded=0;orthogonalLoop=1;jettySize=auto;html=1;exitX=0.5;exitY=1;exitDx=0;exitDy=0;entryX=0.5;entryY=0;entryDx=0;entryDy=0;" edge="1" parent="1" source="hr_I5utK1YI0NH82CtJ3-15">
          <mxGeometry relative="1" as="geometry">
            <mxPoint x="-40" y="520" as="targetPoint" />
          </mxGeometry>
        </mxCell>
        <mxCell id="hr_I5utK1YI0NH82CtJ3-30" value="CreateProfile.js" style="rounded=1;whiteSpace=wrap;html=1;arcSize=50;" vertex="1" parent="1">
          <mxGeometry x="460" y="120" width="120" height="60" as="geometry" />
        </mxCell>
        <mxCell id="hr_I5utK1YI0NH82CtJ3-36" style="edgeStyle=orthogonalEdgeStyle;rounded=0;orthogonalLoop=1;jettySize=auto;html=1;exitX=0.5;exitY=1;exitDx=0;exitDy=0;entryX=0.5;entryY=0;entryDx=0;entryDy=0;" edge="1" parent="1" source="hr_I5utK1YI0NH82CtJ3-33" target="hr_I5utK1YI0NH82CtJ3-35">
          <mxGeometry relative="1" as="geometry" />
        </mxCell>
        <mxCell id="hr_I5utK1YI0NH82CtJ3-33" value="CreateAccount.js" style="rounded=1;whiteSpace=wrap;html=1;arcSize=50;" vertex="1" parent="1">
          <mxGeometry x="60" y="420" width="120" height="60" as="geometry" />
        </mxCell>
        <mxCell id="hr_I5utK1YI0NH82CtJ3-35" value="Inputs" style="rounded=1;whiteSpace=wrap;html=1;arcSize=50;" vertex="1" parent="1">
          <mxGeometry x="60" y="520" width="120" height="60" as="geometry" />
        </mxCell>
        <mxCell id="hr_I5utK1YI0NH82CtJ3-42" style="edgeStyle=orthogonalEdgeStyle;rounded=0;orthogonalLoop=1;jettySize=auto;html=1;exitX=0.5;exitY=1;exitDx=0;exitDy=0;entryX=0.5;entryY=0;entryDx=0;entryDy=0;" edge="1" parent="1" source="hr_I5utK1YI0NH82CtJ3-37" target="hr_I5utK1YI0NH82CtJ3-41">
          <mxGeometry relative="1" as="geometry" />
        </mxCell>
        <mxCell id="hr_I5utK1YI0NH82CtJ3-37" value="CreateTransaction.js" style="rounded=1;whiteSpace=wrap;html=1;arcSize=50;" vertex="1" parent="1">
          <mxGeometry x="300" y="620" width="120" height="60" as="geometry" />
        </mxCell>
        <mxCell id="hr_I5utK1YI0NH82CtJ3-41" value="Inputs" style="rounded=1;whiteSpace=wrap;html=1;arcSize=50;" vertex="1" parent="1">
          <mxGeometry x="300" y="720" width="120" height="60" as="geometry" />
        </mxCell>
        <mxCell id="hr_I5utK1YI0NH82CtJ3-54" style="edgeStyle=orthogonalEdgeStyle;rounded=0;orthogonalLoop=1;jettySize=auto;html=1;exitX=0.5;exitY=1;exitDx=0;exitDy=0;entryX=0.5;entryY=0;entryDx=0;entryDy=0;" edge="1" parent="1" target="hr_I5utK1YI0NH82CtJ3-56">
          <mxGeometry relative="1" as="geometry">
            <mxPoint x="280" y="580" as="sourcePoint" />
          </mxGeometry>
        </mxCell>
        <mxCell id="hr_I5utK1YI0NH82CtJ3-64" style="edgeStyle=orthogonalEdgeStyle;rounded=0;orthogonalLoop=1;jettySize=auto;html=1;exitX=0.5;exitY=1;exitDx=0;exitDy=0;entryX=0.5;entryY=0;entryDx=0;entryDy=0;" edge="1" parent="1" source="hr_I5utK1YI0NH82CtJ3-61" target="hr_I5utK1YI0NH82CtJ3-62">
          <mxGeometry relative="1" as="geometry" />
        </mxCell>
        <mxCell id="hr_I5utK1YI0NH82CtJ3-61" value="EditTransactions.js" style="rounded=1;whiteSpace=wrap;html=1;arcSize=50;" vertex="1" parent="1">
          <mxGeometry x="540" y="520" width="120" height="60" as="geometry" />
        </mxCell>
        <mxCell id="hr_I5utK1YI0NH82CtJ3-62" value="Inputs" style="rounded=1;whiteSpace=wrap;html=1;arcSize=50;" vertex="1" parent="1">
          <mxGeometry x="540" y="620" width="120" height="60" as="geometry" />
        </mxCell>
        <mxCell id="hr_I5utK1YI0NH82CtJ3-65" value="DeleteTransaction.js" style="rounded=1;whiteSpace=wrap;html=1;arcSize=50;" vertex="1" parent="1">
          <mxGeometry x="700" y="520" width="120" height="60" as="geometry" />
        </mxCell>
      </root>
    </mxGraphModel>
  </diagram>
</mxfile>
